<?xml version="1.0" standalone="no"?>
<!DOCTYPE svg PUBLIC "-//W3C//DTD SVG 20010904//EN"
 "http://www.w3.org/TR/2001/REC-SVG-20010904/DTD/svg10.dtd">
<svg version="1.0" xmlns="http://www.w3.org/2000/svg"
 width="121.000000pt" height="121.000000pt" viewBox="0 0 121.000000 121.000000"
 preserveAspectRatio="xMidYMid meet">
<metadata>
Created by potrace 1.10, written by Peter Selinger 2001-2011
</metadata>
<g transform="translate(0.000000,121.000000) scale(0.100000,-0.100000)"
fill="#000000" stroke="none">
<path d="M553 1190 c-38 -23 -37 -20 -18 -56 20 -40 19 -53 -7 -58 -158 -31
-208 -54 -285 -134 -55 -56 -98 -129 -119 -202 -25 -88 -43 -118 -76 -129 -43
-15 -35 -46 12 -46 l35 0 6 -56 c3 -35 20 -87 43 -134 50 -108 129 -183 266
-255 58 -30 121 -70 141 -87 45 -41 68 -41 124 -3 24 17 75 46 112 65 44 22
92 59 135 102 119 121 171 238 150 336 l-10 47 64 0 c56 0 64 2 64 19 0 13
-11 23 -36 31 -56 19 -118 86 -139 150 -58 179 -174 286 -316 293 l-54 2 -3
45 c-5 97 -23 111 -89 70z m57 -48 c0 -70 17 -88 90 -95 133 -14 227 -98 280
-251 28 -83 57 -124 109 -157 31 -20 39 -29 25 -29 -39 0 -135 30 -173 54 -21
14 -43 22 -47 18 -5 -4 -6 -3 -2 2 4 5 3 15 -3 23 -25 29 -26 10 -3 -54 13
-38 24 -86 24 -107 0 -39 0 -39 -21 -20 -29 26 -126 156 -140 188 -18 38 -31
32 -22 -11 11 -56 7 -84 -21 -148 -15 -32 -26 -71 -26 -88 l0 -30 -22 21 c-13
11 -52 77 -88 146 -36 69 -68 126 -72 126 -4 0 -4 -15 -1 -33 4 -30 1 -38 -31
-64 -41 -33 -229 -133 -251 -133 -10 0 -1 27 31 94 26 53 44 104 42 117 -3 22
-5 21 -33 -18 -29 -42 -81 -75 -139 -89 l-30 -7 22 28 c12 15 30 53 38 84 19
66 57 143 93 190 45 59 135 118 199 131 133 27 142 30 141 59 -1 14 -4 37 -8
51 -5 17 -2 29 8 37 26 20 31 15 31 -35z m386 -527 c44 -15 51 -31 53 -126 1
-75 -39 -155 -125 -248 -64 -69 -129 -119 -141 -107 -11 10 75 174 106 201 38
34 61 83 61 129 0 34 -34 178 -47 199 -3 5 7 0 24 -12 16 -12 47 -28 69 -36z
m-765 -14 c-16 -32 -41 -72 -55 -88 -14 -17 -26 -34 -26 -38 0 -7 57 1 86 12
10 4 14 -3 14 -26 0 -36 20 -80 46 -102 9 -7 36 -43 60 -79 24 -36 62 -85 85
-110 49 -55 40 -34 -16 35 -22 28 -50 64 -62 80 l-21 30 56 -1 56 -2 22 -63
c23 -70 63 -153 70 -147 2 3 -7 27 -20 54 -13 27 -32 75 -42 107 l-18 57 32
33 c37 38 52 75 52 127 0 47 -15 88 -42 117 -18 20 -19 23 -5 43 15 22 17 20
57 -61 55 -109 107 -179 129 -171 13 5 14 3 4 -9 -28 -34 45 -89 117 -89 l41
0 -29 -53 c-17 -28 -36 -72 -43 -96 -7 -23 -20 -46 -28 -49 -9 -3 -37 -20 -64
-39 -26 -18 -51 -33 -56 -33 -5 0 -12 -6 -15 -12 -5 -13 -11 -7 -52 47 -8 11
-12 13 -8 5 8 -16 -2 -10 -49 29 -10 8 -24 16 -32 17 -7 1 -43 19 -80 39 -152
85 -253 222 -263 355 l-4 66 45 18 c24 9 53 26 62 36 28 31 27 24 -4 -39z
m633 -79 c49 -52 60 -55 69 -17 3 11 5 2 6 -21 1 -55 -35 -122 -79 -145 -40
-22 -67 -24 -107 -8 l-28 12 24 6 c33 9 49 36 35 58 -19 30 -42 39 -65 25 -20
-13 -21 -12 -17 30 3 24 14 66 26 93 11 28 24 59 27 70 6 18 9 17 33 -15 15
-19 49 -59 76 -88z m-360 58 c38 -46 44 -109 15 -167 -38 -77 -100 -107 -165
-82 l-28 10 24 12 c31 16 37 43 14 68 -23 26 -60 24 -76 -3 l-12 -23 -7 25
c-15 54 -11 77 18 85 29 7 160 82 169 96 9 15 21 10 48 -21z"/>
<path d="M712 273 c-7 -26 -29 -84 -49 -130 -20 -46 -33 -86 -31 -89 7 -7 89
192 95 232 8 49 -1 42 -15 -13z"/>
</g>
</svg>
